HIERARCHY
ROOT hip
{
	OFFSET 0.000000 0.000000 0.000000 
	CHANNELS 6 Xposition Yposition Zposition Xrotation Zrotation Yrotation
	JOINT abdomen
	{
		OFFSET 0.000000 3.402643 0.000000 
		CHANNELS 3 Xrotation Zrotation Yrotation
		JOINT chest
		{
			OFFSET 0.000000 8.438565 -0.680529 
			CHANNELS 3 Xrotation Zrotation Yrotation
			JOINT neck
			{
				OFFSET 0.000000 10.207942 -0.272212 
				CHANNELS 3 Xrotation Zrotation Yrotation
				JOINT head
				{
					OFFSET 0.000000 3.130431 0.000000 
					CHANNELS 3 Xrotation Zrotation Yrotation
					End Site
					{
						OFFSET 0.000000 3.130435 0.000000 
					}
				}
			}
			JOINT lCollar
			{
				OFFSET 3.470700 6.669187 -0.816635 
				CHANNELS 3 Yrotation Zrotation Xrotation
				JOINT lShldr
				{
					OFFSET 3.198488 0.000000 0.000000 
					CHANNELS 3 Zrotation Yrotation Xrotation
					JOINT lForeArm
					{
						OFFSET 10.139888 0.000000 0.000000 
						CHANNELS 3 Yrotation Zrotation Xrotation
						JOINT lHand
						{
							OFFSET 8.370511 0.000000 0.000000 
							CHANNELS 3 Zrotation Yrotation Xrotation
							End Site
							{
								OFFSET 4.083176 0.000000 0.000000 
							}
						}
					}
				}
			}
			JOINT rCollar
			{
				OFFSET -3.470700 6.669187 -0.816635 
				CHANNELS 3 Yrotation Zrotation Xrotation
				JOINT rShldr
				{
					OFFSET -3.198488 0.000000 0.000000 
					CHANNELS 3 Zrotation Yrotation Xrotation
					JOINT rForeArm
					{
						OFFSET -10.139888 0.000000 0.000000 
						CHANNELS 3 Yrotation Zrotation Xrotation
						JOINT rHand
						{
							OFFSET -8.370511 0.000000 0.000000 
							CHANNELS 3 Zrotation Yrotation Xrotation
							End Site
							{
								OFFSET -4.083176 0.000000 0.000000 
							}
						}
					}
				}
			}
		}
	}
	JOINT lThigh
	{
		OFFSET 5.308129 -1.633274 1.361059 
		CHANNELS 3 Xrotation Zrotation Yrotation
		JOINT lShin
		{
			OFFSET -2.041588 -20.007561 0.000000 
			CHANNELS 3 Xrotation Zrotation Yrotation
			JOINT lFoot
			{
				OFFSET 0.000000 -19.190928 -1.224953 
				CHANNELS 3 Xrotation Yrotation Zrotation
				End Site
				{
					OFFSET 0.000000 -2.449906 4.627600 
				}
			}
		}
	}
	JOINT rThigh
	{
		OFFSET -5.308129 -1.633274 1.361059 
		CHANNELS 3 Xrotation Zrotation Yrotation
		JOINT rShin
		{
			OFFSET 2.041588 -20.007561 0.000000 
			CHANNELS 3 Xrotation Zrotation Yrotation
			JOINT rFoot
			{
				OFFSET 0.000000 -19.190928 -1.224953 
				CHANNELS 3 Xrotation Yrotation Zrotation
				End Site
				{
					OFFSET 0.000000 -2.449906 4.627600 
				}
			}
		}
	}
}
MOTION
Frames: 12
Frame Time: 0.033333
0.334508 49.638664 0.334508 0.000000 0.000000 0.000000 12.066301 -0.242675 1.113506 -24.502335 -0.798842 -11.458842 16.552999 4.897201 -16.881573 10.524219 0.508720 -0.030344 -25.817562 2.637936 -25.000000 -59.764000 1.257712 19.064245 -91.639618 -3.197474 0.917323 -71.382889 -47.553295 69.516823 -23.676170 10.476406 -25.000000 20.013176 62.135899 -70.457649 93.848312 3.193746 0.866829 -110.972710 65.342270 -92.530830 -1.619819 5.033679 0.695150 9.279166 -1.709638 -2.021877 -7.660769 0.909393 -3.066680 3.812308 -4.008317 -21.304787 10.634927 1.645484 2.088945 -12.182564 -12.572595 3.101583 
0.334508 49.638664 0.334508 0.000000 0.000000 0.000000 12.056831 -0.573342 2.682376 -24.550907 -0.457820 -6.511148 23.073658 -0.320114 -0.556316 10.524219 0.508720 -0.030344 -2.655749 -0.908293 -22.777054 -43.037594 13.886665 31.297350 -102.885223 -3.188576 0.603295 -71.382889 -47.553295 69.516823 0.493383 6.388110 -23.173628 -33.914948 21.260471 -132.782883 84.130486 3.163603 1.123822 41.954056 116.783775 54.027733 -1.619819 5.033679 0.695150 9.279166 -1.709638 -2.021877 -7.660769 0.909393 -3.066680 3.812308 -4.008317 -21.304787 10.634927 1.645484 2.088945 -12.182564 -12.572595 3.101583 
0.334508 49.638664 0.334508 0.000000 0.000000 0.000000 12.035977 -0.952639 4.438621 -24.580078 -0.068132 -0.971783 28.522591 -8.135230 16.962851 10.524219 0.508720 -0.030344 23.552958 -1.372489 -16.367115 -17.918051 16.936516 37.115803 -113.340347 -3.124190 0.325935 -71.382889 -47.553295 69.516823 25.312973 6.379796 -16.725336 -55.207745 18.881453 -145.112915 44.064659 2.586172 2.060372 36.782063 62.429802 43.476551 -1.619819 5.033679 0.695150 9.279166 -1.709638 -2.021877 -7.660769 0.909393 -3.066680 3.812308 -4.008317 -21.304787 10.634927 1.645484 2.088945 -12.182564 -12.572595 3.101583 
0.334508 49.638664 0.334508 0.000000 0.000000 0.000000 12.008443 -1.255297 5.855947 -24.570347 0.243608 3.479095 31.399729 -15.447137 30.592758 10.524219 0.508720 -0.030344 43.666153 0.938413 -11.995139 -4.874674 13.507612 30.727768 -113.880531 -3.124475 0.310499 -71.382889 -47.553295 69.516823 45.000000 8.709422 -12.382896 -61.142609 40.784725 -140.569489 8.065021 1.651716 2.397286 39.968578 6.133629 42.286472 -1.619819 5.033679 0.695150 9.279166 -1.709638 -2.021877 -7.660769 0.909393 -3.066680 3.812308 -4.008317 -21.304787 10.634927 1.645484 2.088945 -12.182564 -12.572595 3.101583 
0.334508 49.638664 0.334508 0.000000 0.000000 0.000000 12.004465 -1.273747 5.960576 -24.570354 0.263092 3.800000 39.645874 -20.343910 29.205612 10.524219 0.508720 -0.030344 39.710510 3.160125 -2.648547 -28.227322 -19.390257 27.822327 -60.777378 -2.912041 1.718892 -71.382889 -47.553295 69.516823 45.000000 10.787489 -3.750196 -15.700316 51.197788 -87.070313 12.920605 1.786193 2.386714 43.469540 2.507185 45.377029 -1.619819 5.033679 0.695150 9.279166 -1.709638 -2.021877 -7.660769 0.909393 -3.066680 3.812308 -4.008317 -21.304787 10.634927 1.645484 2.088945 -12.182564 -12.572595 3.101583 
0.334508 49.638664 0.334508 0.000000 0.000000 0.000000 12.025265 -1.025331 4.798415 -24.580076 0.009802 0.136045 43.969437 -14.602884 17.485781 10.524219 0.508720 -0.030344 18.726650 0.739252 0.128195 -59.727306 -46.782818 41.936226 -17.752407 -1.930943 2.373664 -71.382889 -47.553295 69.516823 39.252419 9.055677 -0.997896 29.748627 32.020176 -32.708698 30.527424 2.261972 2.254359 44.681721 16.110853 49.264751 -1.619819 5.033679 0.695150 9.279166 -1.709638 -2.021877 -7.660769 0.909393 -3.066680 3.812308 -4.008317 -21.304787 10.634927 1.645484 2.088945 -12.182564 -12.572595 3.101583 
0.334508 49.638664 0.334508 0.000000 0.000000 0.000000 12.041191 -0.836612 3.880481 -24.580101 -0.194775 -2.750028 40.290035 -7.829608 10.016834 10.524219 0.508720 -0.030344 6.122590 -0.217681 -4.813955 -64.168427 -44.537151 39.148129 -22.968231 -2.069735 2.343315 -71.382889 -47.553295 69.516823 24.616999 6.579084 -5.313230 51.122505 2.415367 -16.456148 43.680950 2.578886 2.067687 38.815472 29.538618 47.503918 -1.619819 5.033679 0.695150 9.279166 -1.709638 -2.021877 -7.660769 0.909393 -3.066680 3.812308 -4.008317 -21.304787 10.634927 1.645484 2.088945 -12.182564 -12.572595 3.101583 
0.334508 49.638664 0.334508 0.000000 0.000000 0.000000 12.053442 -0.613253 2.871344 -24.560654 -0.418846 -5.918081 34.097977 -1.293301 1.237998 10.524219 0.508720 -0.030344 -6.867303 -0.020739 -11.628822 -63.976906 -37.625629 31.719013 -36.395931 -2.417862 2.184333 -71.382889 -47.553295 69.516823 6.930197 5.534446 -11.999987 54.993431 -10.314010 -10.944718 56.597076 2.832426 1.816310 27.856653 44.165436 40.756359 -1.619819 5.033679 0.695150 9.279166 -1.709638 -2.021877 -7.660769 0.909393 -3.066680 3.812308 -4.008317 -21.304787 10.634927 1.645484 2.088945 -12.182564 -12.572595 3.101583 
0.334508 49.638664 0.334508 0.000000 0.000000 0.000000 12.067618 -0.427314 1.962969 -24.531477 -0.613709 -8.775919 27.386110 3.244112 -7.535215 10.524219 0.508720 -0.030344 -18.215443 1.195625 -18.085276 -63.204670 -29.784372 24.503700 -50.881916 -2.730846 1.945185 -71.382889 -47.553295 69.516823 -8.472368 6.544628 -18.664070 53.342129 1.049257 -4.522306 68.042717 3.011267 1.547109 13.171978 55.607628 29.382887 -1.619819 5.033679 0.695150 9.279166 -1.709638 -2.021877 -7.660769 0.909393 -3.066680 3.812308 -4.008317 -21.304787 10.634927 1.645484 2.088945 -12.182564 -12.572595 3.101583 
0.334508 49.638664 0.334508 0.000000 0.000000 0.000000 12.065812 -0.257145 1.179545 -24.502325 -0.789099 -11.234901 21.006624 5.859144 -15.743764 10.524219 0.508720 -0.030344 -27.767384 2.957742 -23.645916 -62.835228 -22.305042 18.481419 -64.247398 -2.962847 1.652010 -71.382889 -47.553295 69.516823 -22.056288 9.210228 -24.390528 59.227131 18.618078 1.662711 78.759163 3.125401 1.279274 -9.973957 63.624790 9.210726 -1.619819 5.033679 0.695150 9.279166 -1.709638 -2.021877 -7.660769 0.909393 -3.066680 3.812308 -4.008317 -21.304787 10.634927 1.645484 2.088945 -12.182564 -12.572595 3.101583 
0.334508 49.638664 0.334508 0.000000 0.000000 0.000000 12.069470 -0.108988 0.510007 -24.473175 -0.935272 -13.344492 15.369218 7.036707 -23.101412 10.524219 0.508720 -0.030344 -35.746838 4.946306 -25.000000 -62.860458 -15.793591 13.529726 -75.788193 -3.101040 1.346027 -71.382889 -47.553295 69.516823 -33.183266 12.585572 -25.000000 72.125351 31.934624 11.181537 87.608238 3.183863 1.037671 -37.092690 65.994667 -15.499465 -1.619819 5.033679 0.695150 9.279166 -1.709638 -2.021877 -7.660769 0.909393 -3.066680 3.812308 -4.008317 -21.304787 10.634927 1.645484 2.088945 -12.182564 -12.572595 3.101583 
0.334508 49.638664 0.334508 0.000000 0.000000 0.000000 12.070312 -0.000052 -0.000031 -24.444000 -1.042482 -14.968585 11.091915 7.311021 -28.897215 10.524219 0.508720 -0.030344 -41.858395 6.784798 -25.000000 -63.078346 -11.318440 9.782899 -84.050705 -3.163964 1.133466 -71.382889 -47.553295 69.516823 -41.328384 15.696704 -25.000000 86.192619 37.495426 21.379011 94.055870 3.201209 0.853170 -57.155724 64.498032 -33.804619 -1.619819 5.033679 0.695150 9.279166 -1.709638 -2.021877 -7.660769 0.909393 -3.066680 3.812308 -4.008317 -21.304787 10.634927 1.645484 2.088945 -12.182564 -12.572595 3.101583 
